<svg xmlns="http://www.w3.org/2000/svg" width="24" height="24" fill="none" viewBox="0 0 24 24"><path fill="#000" fill-rule="evenodd" d="M11.5 13C11.2239 13 11 13.2239 11 13.5C11 13.7761 11.2239 14 11.5 14C11.7761 14 12 13.7761 12 13.5C12 13.2239 11.7761 13 11.5 13ZM9 13.5C9 12.1193 10.1193 11 11.5 11C12.8807 11 14 12.1193 14 13.5C14 14.8807 12.8807 16 11.5 16C10.1193 16 9 14.8807 9 13.5Z" clip-rule="evenodd"/><path fill="#000" fill-rule="evenodd" d="M9.76756 17H13.2324C12.8866 16.4022 12.2403 16 11.5 16C10.7597 16 10.1134 16.4022 9.76756 17ZM7.5 18C7.5 15.7909 9.29086 14 11.5 14C13.7091 14 15.5 15.7909 15.5 18C15.5 18.5523 15.0523 19 14.5 19H8.5C7.94772 19 7.5 18.5523 7.5 18Z" clip-rule="evenodd"/><path fill="#000" fill-rule="evenodd" d="M4 10.5C4 9.11929 5.11929 8 6.5 8H16.5C17.8807 8 19 9.11929 19 10.5V19.5C19 20.8807 17.8807 22 16.5 22H6.5C5.11929 22 4 20.8807 4 19.5V10.5ZM6.5 10C6.22386 10 6 10.2239 6 10.5V19.5C6 19.7761 6.22386 20 6.5 20H16.5C16.7761 20 17 19.7761 17 19.5V10.5C17 10.2239 16.7761 10 16.5 10H6.5Z" clip-rule="evenodd"/><path fill="#000" fill-rule="evenodd" d="M6.5 6.5C6.5 4.01472 8.51472 2 11 2H12C14.4853 2 16.5 4.01472 16.5 6.5V9H14.5V6.5C14.5 5.11929 13.3807 4 12 4H11C9.61929 4 8.5 5.11929 8.5 6.5V9H6.5V6.5Z" clip-rule="evenodd"/></svg>