<svg xmlns="http://www.w3.org/2000/svg" xmlns:xlink="http://www.w3.org/1999/xlink" width="500" zoomAndPan="magnify" viewBox="0 0 375 374.999991" height="500" preserveAspectRatio="xMidYMid meet" version="1.0"><defs><g><g id="id1"/><g id="id2"/><g id="id3"/><g id="id4"/></g><clipPath id="id5"><path d="M 127 58.066406 L 240 58.066406 L 240 199 L 127 199 Z M 127 58.066406 " clip-rule="nonzero"/></clipPath></defs><g clip-path="url(#id5)"><path fill="rgb(92.158508%, 41.178894%, 3.919983%)" d="M 192.074219 183.042969 C 214.578125 171.996094 232.023438 157.660156 239.890625 145.191406 L 234.644531 99.175781 C 234.203125 95.1875 230.820312 92.152344 226.808594 92.152344 L 214.007812 92.152344 L 214.007812 85.664062 C 214.007812 70.441406 201.621094 58.035156 186.417969 58.035156 C 171.21875 58.035156 158.828125 70.441406 158.828125 85.664062 L 158.828125 92.152344 L 146.027344 92.152344 C 142.015625 92.152344 138.632812 95.15625 138.191406 99.175781 L 127.097656 196.777344 C 141.320312 200.511719 166.351562 195.667969 192.074219 183.042969 Z M 210.5 100.441406 C 212.460938 100.441406 214.007812 102.023438 214.007812 103.957031 C 214.007812 105.886719 212.429688 107.46875 210.5 107.46875 C 208.570312 107.46875 206.992188 105.886719 206.992188 103.957031 C 206.992188 102.023438 208.539062 100.441406 210.5 100.441406 Z M 165.875 85.664062 C 165.875 74.332031 175.105469 65.09375 186.417969 65.09375 C 197.730469 65.09375 206.960938 74.332031 206.960938 85.664062 L 206.960938 92.152344 L 165.875 92.152344 Z M 162.335938 100.441406 C 164.296875 100.441406 165.84375 102.023438 165.84375 103.957031 C 165.84375 105.886719 164.265625 107.46875 162.335938 107.46875 C 160.410156 107.46875 158.828125 105.886719 158.828125 103.957031 C 158.828125 102.023438 160.410156 100.441406 162.335938 100.441406 Z M 162.335938 100.441406 " fill-opacity="1" fill-rule="nonzero"/></g><path fill="rgb(79.998779%, 0.779724%, 26.669312%)" d="M 243.148438 173.832031 C 256.832031 160.097656 263.152344 146.238281 258.378906 136.488281 C 255.3125 130.222656 248.078125 126.550781 238.183594 125.382812 C 237.648438 125.316406 237.457031 126.078125 237.964844 126.265625 C 241.914062 127.722656 244.820312 129.96875 246.339844 133.070312 C 253.101562 146.871094 230.15625 172.027344 195.109375 189.246094 C 160.0625 206.460938 126.148438 209.246094 119.386719 195.480469 C 117.871094 192.378906 117.839844 188.707031 119.132812 184.6875 C 119.292969 184.148438 118.597656 183.832031 118.3125 184.308594 C 113.191406 192.851562 111.675781 200.828125 114.742188 207.09375 C 121.882812 221.652344 151.433594 222.222656 184.679688 209.878906 L 238.058594 209.878906 C 242.957031 209.878906 246.75 205.605469 246.179688 200.765625 Z M 243.148438 173.832031 " fill-opacity="1" fill-rule="nonzero"/><g fill="rgb(0%, 0%, 0%)" fill-opacity="1"><g transform="translate(39.770242, 262.650754)"><g><path d="M 2.296875 -22.921875 L 13.125 -22.921875 C 15.695312 -22.921875 17.742188 -22.398438 19.265625 -21.359375 C 20.785156 -20.316406 21.546875 -18.925781 21.546875 -17.1875 C 21.546875 -15.988281 21.191406 -14.9375 20.484375 -14.03125 C 19.785156 -13.125 18.828125 -12.492188 17.609375 -12.140625 C 19.046875 -11.859375 20.191406 -11.191406 21.046875 -10.140625 C 21.898438 -9.097656 22.328125 -7.832031 22.328125 -6.34375 C 22.328125 -4.40625 21.535156 -2.863281 19.953125 -1.71875 C 18.367188 -0.570312 16.222656 0 13.515625 0 L 2.296875 0 Z M 8.078125 -18.46875 L 8.078125 -13.75 L 12.796875 -13.75 C 13.648438 -13.75 14.328125 -13.960938 14.828125 -14.390625 C 15.328125 -14.816406 15.578125 -15.398438 15.578125 -16.140625 C 15.578125 -16.859375 15.328125 -17.425781 14.828125 -17.84375 C 14.328125 -18.257812 13.648438 -18.46875 12.796875 -18.46875 Z M 8.078125 -9.5625 L 8.078125 -4.484375 L 12.796875 -4.484375 C 13.890625 -4.484375 14.742188 -4.710938 15.359375 -5.171875 C 15.984375 -5.628906 16.296875 -6.265625 16.296875 -7.078125 C 16.296875 -7.835938 15.984375 -8.441406 15.359375 -8.890625 C 14.742188 -9.335938 13.890625 -9.5625 12.796875 -9.5625 Z M 8.078125 -9.5625 "/></g></g></g><g fill="rgb(0%, 0%, 0%)" fill-opacity="1"><g transform="translate(68.079454, 262.650754)"><g><path d="M 22.921875 -22.921875 L 22.921875 -9.625 C 22.921875 -6.59375 21.976562 -4.1875 20.09375 -2.40625 C 18.21875 -0.625 15.675781 0.265625 12.46875 0.265625 C 9.238281 0.265625 6.671875 -0.625 4.765625 -2.40625 C 2.859375 -4.1875 1.90625 -6.59375 1.90625 -9.625 L 1.90625 -22.921875 L 7.71875 -22.921875 L 7.71875 -9.625 C 7.71875 -8.09375 8.160156 -6.875 9.046875 -5.96875 C 9.929688 -5.0625 11.082031 -4.609375 12.5 -4.609375 C 13.894531 -4.609375 15.015625 -5.054688 15.859375 -5.953125 C 16.703125 -6.847656 17.125 -8.070312 17.125 -9.625 L 17.125 -22.921875 Z M 22.921875 -22.921875 "/></g></g></g><g fill="rgb(0%, 0%, 0%)" fill-opacity="1"><g transform="translate(97.795863, 262.650754)"><g><path d="M 14.109375 -7.390625 L 14.109375 0 L 8.3125 0 L 8.3125 -7.234375 L -0.15625 -22.921875 L 5.65625 -22.921875 L 11.1875 -12.9375 L 16.59375 -22.921875 L 22.421875 -22.921875 Z M 14.109375 -7.390625 "/></g></g></g><g fill="rgb(0%, 0%, 0%)" fill-opacity="1"><g transform="translate(124.959705, 262.650754)"><g/></g></g><g fill="rgb(0%, 0%, 0%)" fill-opacity="1"><g transform="translate(137.462656, 262.650754)"><g><path d="M 17.515625 -4.21875 L 7.5 -4.21875 L 5.828125 0 L -0.15625 0 L 9.71875 -22.921875 L 15.71875 -22.921875 L 25.375 0 L 19.15625 0 Z M 15.8125 -8.640625 L 12.53125 -17.125 L 9.203125 -8.640625 Z M 15.8125 -8.640625 "/></g></g></g><g fill="rgb(0%, 0%, 0%)" fill-opacity="1"><g transform="translate(167.571765, 262.650754)"><g><path d="M 23.4375 0 L 18.296875 0 L 7.765625 -14.109375 L 7.765625 0 L 2.296875 0 L 2.296875 -22.921875 L 7.4375 -22.921875 L 18 -8.765625 L 18 -22.921875 L 23.4375 -22.921875 Z M 23.4375 0 "/></g></g></g><g fill="rgb(0%, 0%, 0%)" fill-opacity="1"><g transform="translate(198.204469, 262.650754)"><g><path d="M 2.296875 -22.921875 L 12.140625 -22.921875 C 15.742188 -22.921875 18.675781 -21.859375 20.9375 -19.734375 C 23.195312 -17.617188 24.328125 -14.859375 24.328125 -11.453125 C 24.328125 -8.078125 23.179688 -5.320312 20.890625 -3.1875 C 18.597656 -1.0625 15.609375 0 11.921875 0 L 2.296875 0 Z M 8.125 -18.265625 L 8.125 -4.640625 L 12.28125 -4.640625 C 14.0625 -4.640625 15.523438 -5.265625 16.671875 -6.515625 C 17.816406 -7.773438 18.390625 -9.410156 18.390625 -11.421875 C 18.390625 -13.429688 17.789062 -15.070312 16.59375 -16.34375 C 15.394531 -17.625 13.867188 -18.265625 12.015625 -18.265625 Z M 8.125 -18.265625 "/></g></g></g><g fill="rgb(0%, 0%, 0%)" fill-opacity="1"><g transform="translate(228.21539, 262.650754)"><g/></g></g><g fill="rgb(0%, 0%, 0%)" fill-opacity="1"><g transform="translate(240.718331, 262.650754)"><g><path d="M 11.09375 -23.171875 C 14.519531 -23.171875 17.53125 -22.320312 20.125 -20.625 L 17.9375 -16.078125 C 16.738281 -16.773438 15.453125 -17.347656 14.078125 -17.796875 C 12.703125 -18.242188 11.546875 -18.46875 10.609375 -18.46875 C 8.921875 -18.46875 8.078125 -17.910156 8.078125 -16.796875 C 8.078125 -16.078125 8.492188 -15.5 9.328125 -15.0625 C 10.160156 -14.625 11.171875 -14.242188 12.359375 -13.921875 C 13.546875 -13.609375 14.734375 -13.226562 15.921875 -12.78125 C 17.109375 -12.332031 18.117188 -11.601562 18.953125 -10.59375 C 19.785156 -9.59375 20.203125 -8.332031 20.203125 -6.8125 C 20.203125 -4.601562 19.335938 -2.878906 17.609375 -1.640625 C 15.890625 -0.410156 13.695312 0.203125 11.03125 0.203125 C 9.132812 0.203125 7.257812 -0.125 5.40625 -0.78125 C 3.550781 -1.4375 1.9375 -2.332031 0.5625 -3.46875 L 2.8125 -7.953125 C 3.96875 -6.953125 5.332031 -6.128906 6.90625 -5.484375 C 8.476562 -4.835938 9.875 -4.515625 11.09375 -4.515625 C 12.03125 -4.515625 12.757812 -4.679688 13.28125 -5.015625 C 13.8125 -5.359375 14.078125 -5.859375 14.078125 -6.515625 C 14.078125 -7.148438 13.773438 -7.675781 13.171875 -8.09375 C 12.578125 -8.519531 11.832031 -8.835938 10.9375 -9.046875 C 10.039062 -9.253906 9.066406 -9.53125 8.015625 -9.875 C 6.972656 -10.226562 6.003906 -10.613281 5.109375 -11.03125 C 4.210938 -11.445312 3.460938 -12.109375 2.859375 -13.015625 C 2.265625 -13.921875 1.96875 -15.003906 1.96875 -16.265625 C 1.96875 -18.359375 2.800781 -20.03125 4.46875 -21.28125 C 6.132812 -22.539062 8.34375 -23.171875 11.09375 -23.171875 Z M 11.09375 -23.171875 "/></g></g></g><g fill="rgb(0%, 0%, 0%)" fill-opacity="1"><g transform="translate(266.704056, 262.650754)"><g><path d="M 20.234375 -18.328125 L 8.125 -18.328125 L 8.125 -13.78125 L 19.046875 -13.78125 L 19.046875 -9.203125 L 8.125 -9.203125 L 8.125 -4.578125 L 20.59375 -4.578125 L 20.59375 0 L 2.296875 0 L 2.296875 -22.921875 L 20.234375 -22.921875 Z M 20.234375 -18.328125 "/></g></g></g><g fill="rgb(0%, 0%, 0%)" fill-opacity="1"><g transform="translate(293.671536, 262.650754)"><g><path d="M 8.125 -4.875 L 17.84375 -4.875 L 17.84375 0 L 2.296875 0 L 2.296875 -22.921875 L 8.125 -22.921875 Z M 8.125 -4.875 "/></g></g></g><g fill="rgb(0%, 0%, 0%)" fill-opacity="1"><g transform="translate(316.908339, 262.650754)"><g><path d="M 8.125 -4.875 L 17.84375 -4.875 L 17.84375 0 L 2.296875 0 L 2.296875 -22.921875 L 8.125 -22.921875 Z M 8.125 -4.875 "/></g></g></g><g fill="rgb(0%, 0%, 0%)" fill-opacity="1"><g transform="translate(57.901382, 184.358598)"><g><path d="M 12.9375 -11.71875 L 5.1875 -11.71875 L 5.1875 -8.8125 L 12.1875 -8.8125 L 12.1875 -5.890625 L 5.1875 -5.890625 L 5.1875 -2.9375 L 13.171875 -2.9375 L 13.171875 0 L 1.46875 0 L 1.46875 -14.65625 L 12.9375 -14.65625 Z M 12.9375 -11.71875 "/></g></g></g><g fill="rgb(0%, 0%, 0%)" fill-opacity="1"><g transform="translate(75.158154, 184.358598)"><g><path d="M 7.09375 -14.828125 C 9.289062 -14.828125 11.21875 -14.28125 12.875 -13.1875 L 11.46875 -10.28125 C 10.707031 -10.726562 9.882812 -11.09375 9 -11.375 C 8.125 -11.664062 7.382812 -11.8125 6.78125 -11.8125 C 5.707031 -11.8125 5.171875 -11.453125 5.171875 -10.734375 C 5.171875 -10.273438 5.4375 -9.90625 5.96875 -9.625 C 6.5 -9.351562 7.144531 -9.113281 7.90625 -8.90625 C 8.664062 -8.707031 9.425781 -8.460938 10.1875 -8.171875 C 10.945312 -7.890625 11.59375 -7.425781 12.125 -6.78125 C 12.65625 -6.144531 12.921875 -5.335938 12.921875 -4.359375 C 12.921875 -2.941406 12.367188 -1.835938 11.265625 -1.046875 C 10.160156 -0.265625 8.757812 0.125 7.0625 0.125 C 5.84375 0.125 4.640625 -0.0820312 3.453125 -0.5 C 2.265625 -0.914062 1.234375 -1.488281 0.359375 -2.21875 L 1.796875 -5.09375 C 2.535156 -4.445312 3.40625 -3.914062 4.40625 -3.5 C 5.414062 -3.09375 6.3125 -2.890625 7.09375 -2.890625 C 7.695312 -2.890625 8.164062 -2.992188 8.5 -3.203125 C 8.832031 -3.421875 9 -3.742188 9 -4.171875 C 9 -4.578125 8.804688 -4.914062 8.421875 -5.1875 C 8.035156 -5.457031 7.554688 -5.65625 6.984375 -5.78125 C 6.421875 -5.914062 5.800781 -6.09375 5.125 -6.3125 C 4.457031 -6.539062 3.835938 -6.785156 3.265625 -7.046875 C 2.691406 -7.316406 2.210938 -7.738281 1.828125 -8.3125 C 1.441406 -8.894531 1.25 -9.59375 1.25 -10.40625 C 1.25 -11.75 1.78125 -12.820312 2.84375 -13.625 C 3.914062 -14.425781 5.332031 -14.828125 7.09375 -14.828125 Z M 7.09375 -14.828125 "/></g></g></g><g fill="rgb(0%, 0%, 0%)" fill-opacity="1"><g transform="translate(91.786649, 184.358598)"><g><path d="M 12.671875 -11.65625 L 8.25 -11.65625 L 8.25 0 L 4.515625 0 L 4.515625 -11.65625 L 0.140625 -11.65625 L 0.140625 -14.671875 L 12.671875 -14.671875 Z M 12.671875 -11.65625 "/></g></g></g><g fill="rgb(0%, 0%, 0%)" fill-opacity="1"><g transform="translate(107.72402, 184.358598)"><g><path d="M 1.46875 -14.65625 L 7.765625 -14.65625 C 10.066406 -14.65625 11.941406 -13.976562 13.390625 -12.625 C 14.835938 -11.269531 15.5625 -9.503906 15.5625 -7.328125 C 15.5625 -5.160156 14.828125 -3.394531 13.359375 -2.03125 C 11.890625 -0.675781 9.976562 0 7.625 0 L 1.46875 0 Z M 5.1875 -11.6875 L 5.1875 -2.96875 L 7.84375 -2.96875 C 8.988281 -2.96875 9.925781 -3.367188 10.65625 -4.171875 C 11.394531 -4.972656 11.765625 -6.015625 11.765625 -7.296875 C 11.765625 -8.585938 11.378906 -9.640625 10.609375 -10.453125 C 9.847656 -11.273438 8.875 -11.6875 7.6875 -11.6875 Z M 5.1875 -11.6875 "/></g></g></g><g fill="rgb(0%, 0%, 0%)" fill-opacity="1"><g transform="translate(263.352117, 184.715561)"><g><path d="M 6.671875 -15.4375 C 8.191406 -15.4375 9.4375 -15.066406 10.40625 -14.328125 C 11.382812 -13.597656 11.875 -12.632812 11.875 -11.4375 C 11.875 -10.019531 10.914062 -8.328125 9 -6.359375 L 5.90625 -3.078125 L 12.34375 -3.078125 L 12.34375 0 L 0.921875 0 L 0.921875 -2.5 L 6.359375 -8.28125 C 7.335938 -9.300781 7.828125 -10.175781 7.828125 -10.90625 C 7.828125 -11.332031 7.671875 -11.671875 7.359375 -11.921875 C 7.054688 -12.171875 6.640625 -12.296875 6.109375 -12.296875 C 4.835938 -12.296875 3.445312 -11.648438 1.9375 -10.359375 L 0.484375 -13.140625 C 2.515625 -14.671875 4.578125 -15.4375 6.671875 -15.4375 Z M 6.671875 -15.4375 "/></g></g></g><g fill="rgb(0%, 0%, 0%)" fill-opacity="1"><g transform="translate(279.701677, 184.715561)"><g><path d="M 7.671875 -15.390625 C 9.835938 -15.390625 11.5 -14.71875 12.65625 -13.375 C 13.820312 -12.039062 14.40625 -10.132812 14.40625 -7.65625 C 14.40625 -5.15625 13.820312 -3.234375 12.65625 -1.890625 C 11.5 -0.554688 9.835938 0.109375 7.671875 0.109375 C 5.492188 0.109375 3.816406 -0.554688 2.640625 -1.890625 C 1.472656 -3.234375 0.890625 -5.15625 0.890625 -7.65625 C 0.890625 -10.132812 1.472656 -12.039062 2.640625 -13.375 C 3.816406 -14.71875 5.492188 -15.390625 7.671875 -15.390625 Z M 7.671875 -12.5625 C 6.679688 -12.5625 5.96875 -12.175781 5.53125 -11.40625 C 5.09375 -10.644531 4.875 -9.390625 4.875 -7.640625 C 4.875 -5.898438 5.09375 -4.644531 5.53125 -3.875 C 5.96875 -3.101562 6.679688 -2.71875 7.671875 -2.71875 C 8.628906 -2.71875 9.328125 -3.109375 9.765625 -3.890625 C 10.210938 -4.671875 10.4375 -5.925781 10.4375 -7.65625 C 10.4375 -9.382812 10.210938 -10.632812 9.765625 -11.40625 C 9.328125 -12.175781 8.628906 -12.5625 7.671875 -12.5625 Z M 7.671875 -12.5625 "/></g></g></g><g fill="rgb(0%, 0%, 0%)" fill-opacity="1"><g transform="translate(298.296576, 184.715561)"><g><path d="M 6.671875 -15.4375 C 8.191406 -15.4375 9.4375 -15.066406 10.40625 -14.328125 C 11.382812 -13.597656 11.875 -12.632812 11.875 -11.4375 C 11.875 -10.019531 10.914062 -8.328125 9 -6.359375 L 5.90625 -3.078125 L 12.34375 -3.078125 L 12.34375 0 L 0.921875 0 L 0.921875 -2.5 L 6.359375 -8.28125 C 7.335938 -9.300781 7.828125 -10.175781 7.828125 -10.90625 C 7.828125 -11.332031 7.671875 -11.671875 7.359375 -11.921875 C 7.054688 -12.171875 6.640625 -12.296875 6.109375 -12.296875 C 4.835938 -12.296875 3.445312 -11.648438 1.9375 -10.359375 L 0.484375 -13.140625 C 2.515625 -14.671875 4.578125 -15.4375 6.671875 -15.4375 Z M 6.671875 -15.4375 "/></g></g></g><g fill="rgb(0%, 0%, 0%)" fill-opacity="1"><g transform="translate(314.646138, 184.715561)"><g><path d="M 6.671875 -15.4375 C 8.191406 -15.4375 9.4375 -15.066406 10.40625 -14.328125 C 11.382812 -13.597656 11.875 -12.632812 11.875 -11.4375 C 11.875 -10.019531 10.914062 -8.328125 9 -6.359375 L 5.90625 -3.078125 L 12.34375 -3.078125 L 12.34375 0 L 0.921875 0 L 0.921875 -2.5 L 6.359375 -8.28125 C 7.335938 -9.300781 7.828125 -10.175781 7.828125 -10.90625 C 7.828125 -11.332031 7.671875 -11.671875 7.359375 -11.921875 C 7.054688 -12.171875 6.640625 -12.296875 6.109375 -12.296875 C 4.835938 -12.296875 3.445312 -11.648438 1.9375 -10.359375 L 0.484375 -13.140625 C 2.515625 -14.671875 4.578125 -15.4375 6.671875 -15.4375 Z M 6.671875 -15.4375 "/></g></g></g><g fill="rgb(0%, 0%, 0%)" fill-opacity="1"><g transform="translate(128.118047, 287.761229)"><g><path d="M 6.265625 -13.09375 C 8.203125 -13.09375 9.90625 -12.609375 11.375 -11.640625 L 10.125 -9.078125 C 9.445312 -9.472656 8.71875 -9.796875 7.9375 -10.046875 C 7.164062 -10.296875 6.515625 -10.421875 5.984375 -10.421875 C 5.035156 -10.421875 4.5625 -10.109375 4.5625 -9.484375 C 4.5625 -9.078125 4.796875 -8.75 5.265625 -8.5 C 5.734375 -8.257812 6.300781 -8.046875 6.96875 -7.859375 C 7.644531 -7.679688 8.316406 -7.46875 8.984375 -7.21875 C 9.660156 -6.96875 10.234375 -6.554688 10.703125 -5.984375 C 11.171875 -5.421875 11.40625 -4.707031 11.40625 -3.84375 C 11.40625 -2.601562 10.914062 -1.632812 9.9375 -0.9375 C 8.96875 -0.238281 7.734375 0.109375 6.234375 0.109375 C 5.160156 0.109375 4.097656 -0.0703125 3.046875 -0.4375 C 2.003906 -0.8125 1.09375 -1.316406 0.3125 -1.953125 L 1.59375 -4.484375 C 2.238281 -3.921875 3.003906 -3.457031 3.890625 -3.09375 C 4.785156 -2.726562 5.578125 -2.546875 6.265625 -2.546875 C 6.796875 -2.546875 7.207031 -2.640625 7.5 -2.828125 C 7.800781 -3.023438 7.953125 -3.304688 7.953125 -3.671875 C 7.953125 -4.035156 7.78125 -4.335938 7.4375 -4.578125 C 7.101562 -4.816406 6.679688 -4.992188 6.171875 -5.109375 C 5.671875 -5.222656 5.125 -5.378906 4.53125 -5.578125 C 3.9375 -5.773438 3.382812 -5.988281 2.875 -6.21875 C 2.375 -6.457031 1.953125 -6.832031 1.609375 -7.34375 C 1.273438 -7.851562 1.109375 -8.46875 1.109375 -9.1875 C 1.109375 -10.375 1.578125 -11.320312 2.515625 -12.03125 C 3.460938 -12.738281 4.710938 -13.09375 6.265625 -13.09375 Z M 6.265625 -13.09375 "/></g></g></g><g fill="rgb(0%, 0%, 0%)" fill-opacity="1"><g transform="translate(144.568376, 287.761229)"><g><path d="M 7.4375 -13.046875 C 9.4375 -13.046875 11.101562 -12.421875 12.4375 -11.171875 C 13.769531 -9.921875 14.4375 -8.359375 14.4375 -6.484375 C 14.4375 -4.597656 13.765625 -3.019531 12.421875 -1.75 C 11.085938 -0.488281 9.421875 0.140625 7.421875 0.140625 C 5.429688 0.140625 3.769531 -0.488281 2.4375 -1.75 C 1.101562 -3.007812 0.4375 -4.585938 0.4375 -6.484375 C 0.4375 -8.367188 1.101562 -9.929688 2.4375 -11.171875 C 3.769531 -12.421875 5.4375 -13.046875 7.4375 -13.046875 Z M 7.46875 -10.296875 C 6.457031 -10.296875 5.59375 -9.925781 4.875 -9.1875 C 4.164062 -8.457031 3.8125 -7.550781 3.8125 -6.46875 C 3.8125 -5.382812 4.171875 -4.46875 4.890625 -3.71875 C 5.609375 -2.976562 6.46875 -2.609375 7.46875 -2.609375 C 8.46875 -2.609375 9.3125 -2.976562 10 -3.71875 C 10.695312 -4.46875 11.046875 -5.382812 11.046875 -6.46875 C 11.046875 -7.550781 10.695312 -8.457031 10 -9.1875 C 9.3125 -9.925781 8.46875 -10.296875 7.46875 -10.296875 Z M 7.46875 -10.296875 "/></g></g></g><g fill="rgb(0%, 0%, 0%)" fill-opacity="1"><g transform="translate(163.993428, 287.761229)"><g/></g></g><g fill="rgb(0%, 0%, 0%)" fill-opacity="1"><g transform="translate(172.831401, 287.761229)"><g><path d="M 11.421875 -10.34375 L 4.578125 -10.34375 L 4.578125 -7.78125 L 10.765625 -7.78125 L 10.765625 -5.1875 L 4.578125 -5.1875 L 4.578125 -2.59375 L 11.625 -2.59375 L 11.625 0 L 1.296875 0 L 1.296875 -12.9375 L 11.421875 -12.9375 Z M 11.421875 -10.34375 "/></g></g></g><g fill="rgb(0%, 0%, 0%)" fill-opacity="1"><g transform="translate(189.836027, 287.761229)"><g><path d="M 9.890625 -2.390625 L 4.234375 -2.390625 L 3.296875 0 L -0.09375 0 L 5.484375 -12.9375 L 8.875 -12.9375 L 14.328125 0 L 10.8125 0 Z M 8.921875 -4.875 L 7.078125 -9.671875 L 5.1875 -4.875 Z M 8.921875 -4.875 "/></g></g></g><g fill="rgb(0%, 0%, 0%)" fill-opacity="1"><g transform="translate(208.61441, 287.761229)"><g><path d="M 6.265625 -13.09375 C 8.203125 -13.09375 9.90625 -12.609375 11.375 -11.640625 L 10.125 -9.078125 C 9.445312 -9.472656 8.71875 -9.796875 7.9375 -10.046875 C 7.164062 -10.296875 6.515625 -10.421875 5.984375 -10.421875 C 5.035156 -10.421875 4.5625 -10.109375 4.5625 -9.484375 C 4.5625 -9.078125 4.796875 -8.75 5.265625 -8.5 C 5.734375 -8.257812 6.300781 -8.046875 6.96875 -7.859375 C 7.644531 -7.679688 8.316406 -7.46875 8.984375 -7.21875 C 9.660156 -6.96875 10.234375 -6.554688 10.703125 -5.984375 C 11.171875 -5.421875 11.40625 -4.707031 11.40625 -3.84375 C 11.40625 -2.601562 10.914062 -1.632812 9.9375 -0.9375 C 8.96875 -0.238281 7.734375 0.109375 6.234375 0.109375 C 5.160156 0.109375 4.097656 -0.0703125 3.046875 -0.4375 C 2.003906 -0.8125 1.09375 -1.316406 0.3125 -1.953125 L 1.59375 -4.484375 C 2.238281 -3.921875 3.003906 -3.457031 3.890625 -3.09375 C 4.785156 -2.726562 5.578125 -2.546875 6.265625 -2.546875 C 6.796875 -2.546875 7.207031 -2.640625 7.5 -2.828125 C 7.800781 -3.023438 7.953125 -3.304688 7.953125 -3.671875 C 7.953125 -4.035156 7.78125 -4.335938 7.4375 -4.578125 C 7.101562 -4.816406 6.679688 -4.992188 6.171875 -5.109375 C 5.671875 -5.222656 5.125 -5.378906 4.53125 -5.578125 C 3.9375 -5.773438 3.382812 -5.988281 2.875 -6.21875 C 2.375 -6.457031 1.953125 -6.832031 1.609375 -7.34375 C 1.273438 -7.851562 1.109375 -8.46875 1.109375 -9.1875 C 1.109375 -10.375 1.578125 -11.320312 2.515625 -12.03125 C 3.460938 -12.738281 4.710938 -13.09375 6.265625 -13.09375 Z M 6.265625 -13.09375 "/></g></g></g><g fill="rgb(0%, 0%, 0%)" fill-opacity="1"><g transform="translate(225.064742, 287.761229)"><g><path d="M 7.96875 -4.171875 L 7.96875 0 L 4.6875 0 L 4.6875 -4.078125 L -0.09375 -12.9375 L 3.203125 -12.9375 L 6.328125 -7.296875 L 9.375 -12.9375 L 12.65625 -12.9375 Z M 7.96875 -4.171875 "/></g></g></g><g fill="rgb(0%, 0%, 0%)" fill-opacity="1"><g transform="translate(242.180235, 287.761229)"><g><path d="M 4 -9.578125 L 3.4375 -4.4375 L 1.515625 -4.4375 L 0.96875 -9.578125 L 0.96875 -12.859375 L 4 -12.859375 Z M 2.421875 -2.9375 C 2.878906 -2.9375 3.25 -2.796875 3.53125 -2.515625 C 3.820312 -2.234375 3.96875 -1.863281 3.96875 -1.40625 C 3.96875 -0.945312 3.820312 -0.570312 3.53125 -0.28125 C 3.25 0 2.878906 0.140625 2.421875 0.140625 C 1.972656 0.140625 1.601562 0 1.3125 -0.28125 C 1.03125 -0.570312 0.890625 -0.945312 0.890625 -1.40625 C 0.890625 -1.863281 1.03125 -2.234375 1.3125 -2.515625 C 1.601562 -2.796875 1.972656 -2.9375 2.421875 -2.9375 Z M 2.421875 -2.9375 "/></g></g></g></svg>