<svg id="visual" viewBox="0 0 1980 1080" width="1980" height="1080" xmlns="http://www.w3.org/2000/svg" xmlns:xlink="http://www.w3.org/1999/xlink" version="1.1"><rect x="0" y="0" width="1980" height="1080" fill="#002233"></rect><path d="M0 709L36.7 706C73.3 703 146.7 697 220 683.7C293.3 670.3 366.7 649.7 440 656.8C513.3 664 586.7 699 660 723.2C733.3 747.3 806.7 760.7 880 743.5C953.3 726.3 1026.7 678.7 1100 667.2C1173.3 655.7 1246.7 680.3 1320 704.5C1393.3 728.7 1466.7 752.3 1540 740.5C1613.3 728.7 1686.7 681.3 1760 664.5C1833.3 647.7 1906.7 661.3 1943.3 668.2L1980 675L1980 1081L1943.3 1081C1906.7 1081 1833.3 1081 1760 1081C1686.7 1081 1613.3 1081 1540 1081C1466.7 1081 1393.3 1081 1320 1081C1246.7 1081 1173.3 1081 1100 1081C1026.7 1081 953.3 1081 880 1081C806.7 1081 733.3 1081 660 1081C586.7 1081 513.3 1081 440 1081C366.7 1081 293.3 1081 220 1081C146.7 1081 73.3 1081 36.7 1081L0 1081Z" fill="#0066FF" stroke-linecap="round" stroke-linejoin="miter"></path></svg>